<svg width="20" height="20" viewBox="0 0 20 20" fill="none" xmlns="http://www.w3.org/2000/svg">
<path fill-rule="evenodd" clip-rule="evenodd" d="M10.4671 4.58139C10.101 4.23043 10.0886 3.64909 10.4396 3.28291C10.7905 2.91674 11.3719 2.9044 11.738 3.25535L17.8605 9.1233C18.0412 9.29651 18.1434 9.53599 18.1434 9.78632C18.1434 10.0366 18.0412 10.2761 17.8605 10.4493L11.738 16.3173C11.3719 16.6682 10.7905 16.6559 10.4396 16.2897C10.0886 15.9236 10.101 15.3422 10.4671 14.9913L14.9369 10.7073H1.91861C1.41141 10.7073 1.00024 10.2961 1.00024 9.7889C1.00024 9.2817 1.41141 8.87054 1.91861 8.87054H14.9423L10.4671 4.58139Z" fill="white"/>
</svg>
