<svg width="40" height="40" viewBox="0 0 40 40" fill="none" xmlns="http://www.w3.org/2000/svg">
<path d="M27.231 20.6689C27.6895 20.2213 28.4428 20.1776 28.8794 20.6471C29.3489 21.0837 29.3489 21.9134 28.9013 22.3501L20.7356 30.5266C17.8536 33.3977 13.6835 33.2121 11.0307 30.5812C8.39979 27.9394 8.22512 23.7692 11.0962 20.8872L22.3294 9.64305C24.5564 7.42697 27.5367 7.53614 29.4799 9.46839C31.4558 11.4443 31.5213 14.3809 29.2943 16.6079L18.2139 27.6883C16.9475 28.9546 15.0808 28.9874 13.8581 27.7647C12.7228 26.6294 12.6682 24.6753 13.9345 23.3981L21.6308 15.7018C22.1002 15.2324 22.7989 15.2324 23.2574 15.6691C23.7159 16.1276 23.694 16.8262 23.2246 17.2956L15.5611 24.9591C15.1681 25.3521 15.2773 25.8106 15.5393 26.0835C15.8122 26.3456 16.2707 26.4547 16.6637 26.0617L27.6786 15.025C28.7921 13.9115 29.0759 12.2303 27.9406 11.0841C26.8162 9.95964 25.1132 10.2326 23.9997 11.357L12.8429 22.492C10.8451 24.5006 11.0089 27.1534 12.7446 28.8782C14.4585 30.603 17.1222 30.7777 19.12 28.769L27.231 20.6689Z" fill="#282828"/>
</svg>
