<svg width="36" height="36" viewBox="0 0 36 36" fill="none" xmlns="http://www.w3.org/2000/svg">
<rect x="0.7" y="0.7" width="34.6" height="34.6" rx="17.3" stroke="#282828" stroke-width="1.4"/>
<path fill-rule="evenodd" clip-rule="evenodd" d="M21.2083 20.7499H14.3333C12.688 20.7499 11.3542 22.0837 11.3542 23.7291V25.5624H24.1875V23.7291C24.1875 22.0837 22.8537 20.7499 21.2083 20.7499ZM14.3333 19.1458C11.802 19.1458 9.75 21.1978 9.75 23.7291V26.0208C9.75 26.6536 10.263 27.1666 10.8958 27.1666H24.6458C25.2787 27.1666 25.7917 26.6536 25.7917 26.0208V23.7291C25.7917 21.1978 23.7396 19.1458 21.2083 19.1458H14.3333Z" fill="#282828"/>
<path fill-rule="evenodd" clip-rule="evenodd" d="M17.7708 16.3958C19.4162 16.3958 20.75 15.0619 20.75 13.4166C20.75 11.7712 19.4162 10.4374 17.7708 10.4374C16.1255 10.4374 14.7917 11.7712 14.7917 13.4166C14.7917 15.0619 16.1255 16.3958 17.7708 16.3958ZM17.7708 17.9999C20.3021 17.9999 22.3542 15.9479 22.3542 13.4166C22.3542 10.8853 20.3021 8.83325 17.7708 8.83325C15.2395 8.83325 13.1875 10.8853 13.1875 13.4166C13.1875 15.9479 15.2395 17.9999 17.7708 17.9999Z" fill="#282828"/>
</svg>
