<svg width="40" height="40" viewBox="0 0 40 40" fill="none" xmlns="http://www.w3.org/2000/svg">
<path d="M10.8536 29.8727C8.36458 29.8727 7 28.519 7 26.0409V12.8317C7 10.3537 8.36458 9 10.8536 9H29.2045C31.7044 9 33.0581 10.3537 33.0581 12.8317V26.0409C33.0581 28.519 31.7044 29.8727 29.2045 29.8727H10.8536ZM9.8165 13.1702V24.1851L12.4147 21.8926C12.8622 21.4887 13.288 21.2922 13.812 21.2922C14.3142 21.2922 14.8272 21.4996 15.2857 21.9144L17.2944 23.7157L22.2069 19.3162C22.7091 18.8796 23.244 18.6722 23.8444 18.6722C24.4121 18.6722 24.9907 18.8905 25.4601 19.3272L30.2416 23.803V13.1702C30.2416 12.2422 29.7722 11.8165 28.8988 11.8165H11.1592C10.2859 11.8165 9.8165 12.2422 9.8165 13.1702ZM16.0281 19.8075C14.5434 19.8075 13.3317 18.5848 13.3317 17.1002C13.3317 15.6373 14.5434 14.4037 16.0281 14.4037C17.5018 14.4037 18.7136 15.6373 18.7136 17.1002C18.7136 18.5848 17.5018 19.8075 16.0281 19.8075Z" fill="#282828"/>
</svg>
