<svg width="93" height="32" viewBox="0 0 93 32" fill="none" xmlns="http://www.w3.org/2000/svg">
<g id="Mailer">
<path id="Vector" d="M78.6895 28.1236C78.8044 27.4569 78.9998 26.5833 79.2757 25.5028C79.5745 24.3993 79.9194 23.2383 80.3102 22.0199C80.7011 20.7784 81.1149 19.537 81.5517 18.2955C81.9885 17.0541 82.4138 15.9391 82.8276 14.9505C83.1265 14.2379 83.3908 13.6861 83.6207 13.2953C83.8506 12.8815 84.1035 12.5366 84.3794 12.2607C84.7013 12.3067 85.0346 12.3872 85.3795 12.5021C85.7243 12.6171 86.0577 12.755 86.3795 12.9159C86.7014 13.0769 86.9887 13.2493 87.2416 13.4332C87.4945 13.5941 87.6899 13.7551 87.8279 13.916C87.2071 14.6517 86.6554 15.4908 86.1726 16.4334C85.7128 17.376 85.2415 18.5829 84.7587 20.0543C86.0002 18.9507 87.0922 17.8932 88.0348 16.8817C89.0003 15.8701 89.8969 14.7436 90.7246 13.5022C90.8625 13.3872 91.1039 13.3298 91.4487 13.3298C91.7706 13.3298 92.081 13.3872 92.3798 13.5022C92.6787 13.5941 92.8856 13.7321 93.0005 13.916C92.5867 15.0195 92.3798 16.1115 92.3798 17.192C92.3798 18.2036 92.5293 18.9622 92.8281 19.468C92.8051 19.606 92.6442 19.8703 92.3453 20.2612C92.0695 20.652 91.7591 21.0198 91.4143 21.3647C90.7935 21.0428 90.2418 20.606 89.759 20.0543C89.2762 19.4795 88.9199 18.8588 88.69 18.1921C87.6095 18.9507 86.6899 19.6979 85.9312 20.4336C85.1726 21.1463 84.5173 21.9509 83.9656 22.8475C83.4368 23.7211 82.977 24.7327 82.5862 25.8821C82.2184 27.0316 81.862 28.3995 81.5172 29.9858C81.3103 29.9628 81.0574 29.8824 80.7585 29.7444C80.4826 29.6295 80.1953 29.48 79.8964 29.2961C79.6205 29.1122 79.3676 28.9168 79.1377 28.7099C78.9079 28.503 78.7584 28.3076 78.6895 28.1236Z" fill="#282828"/>
<path id="Vector_2" d="M77.9188 14.5369C77.8269 15.9623 77.574 17.1922 77.1602 18.2268C76.7464 19.2383 76.1486 20.1349 75.367 20.9166C74.6083 21.6752 73.6772 22.3649 72.5737 22.9856C71.4702 23.6064 70.1828 24.2041 68.7115 24.7788C68.7115 24.9168 68.7 25.0662 68.677 25.2271C68.677 25.3651 68.677 25.5145 68.677 25.6754C68.677 25.9743 68.7 26.2847 68.7459 26.6065C68.7919 26.9284 68.8724 27.2272 68.9873 27.5031C69.1023 27.779 69.2632 28.0089 69.4701 28.1928C69.677 28.3537 69.9414 28.4342 70.2633 28.4342C70.884 28.4342 71.4932 28.2963 72.0909 28.0204C72.6887 27.7445 73.2519 27.4111 73.7807 27.0203C74.3324 26.6065 74.8382 26.1697 75.298 25.7099C75.7808 25.2271 76.2061 24.7903 76.5739 24.3995C76.8038 24.6064 76.9993 24.8018 77.1602 24.9857C76.1256 26.3651 74.9876 27.5146 73.7462 28.4342C72.5277 29.3308 71.3668 29.9055 70.2633 30.1584C68.677 29.9745 67.4355 29.3998 66.5389 28.4342C65.6653 27.4456 65.2285 26.2617 65.2285 24.8823C65.2285 23.9397 65.355 22.9856 65.6078 22.0201C65.8837 21.0315 66.2516 20.0889 66.7114 19.1923C67.1941 18.2727 67.7459 17.4106 68.3666 16.606C69.0103 15.8013 69.6885 15.1002 70.4012 14.5024C71.1369 13.9047 71.884 13.4334 72.6427 13.0886C73.4243 12.7437 74.1945 12.5713 74.9532 12.5713C76.0107 12.7092 76.9992 13.3644 77.9188 14.5369ZM75.5394 15.6749C74.9187 15.7669 74.275 16.0197 73.6083 16.4336C72.9416 16.8474 72.3093 17.3991 71.7116 18.0888C71.1369 18.7785 70.6081 19.5831 70.1253 20.5027C69.6425 21.4223 69.2632 22.4109 68.9873 23.4684C70.8265 22.5488 72.3553 21.4223 73.5738 20.0889C74.7922 18.7325 75.4474 17.2612 75.5394 15.6749Z" fill="#282828"/>
<path id="Vector_3" d="M57.5254 26.6066C57.5254 25.595 57.7668 24.1812 58.2496 22.365C58.7324 20.5258 59.4105 18.3878 60.2842 15.9509C61.7095 12.0656 63.0429 8.83554 64.2844 6.26069C65.5488 3.66285 66.7787 1.63976 67.9742 0.191406C68.2501 0.237385 68.5834 0.352334 68.9743 0.536252C69.3881 0.72017 69.7904 0.927078 70.1812 1.15697C70.572 1.36388 70.9169 1.58228 71.2158 1.81218C71.5376 2.04208 71.7445 2.226 71.8365 2.36393C70.0433 4.47899 68.4685 6.75497 67.1121 9.19188C65.7557 11.6288 64.5143 14.422 63.3878 17.5716C62.4222 20.2844 61.6865 22.7328 61.1808 24.9168C60.675 27.0779 60.4221 28.8826 60.4221 30.3309C60.4221 30.7217 60.4221 30.9631 60.4221 31.0551C60.4221 31.1471 60.4336 31.239 60.4566 31.331C60.1347 31.285 59.8588 31.2045 59.6289 31.0896C59.399 30.9746 59.2496 30.8367 59.1807 30.6758C59.1347 30.5608 59.0082 30.3884 58.8013 30.1585C58.5944 29.9516 58.4105 29.7907 58.2496 29.6757C58.0427 29.5378 57.8702 29.1814 57.7323 28.6067C57.5944 28.009 57.5254 27.3423 57.5254 26.6066Z" fill="#282828"/>
<path id="Vector_4" d="M49.4434 26.5032C49.4434 26.2963 49.4549 26.0434 49.4778 25.7446C49.5238 25.4227 49.5928 25.0089 49.6848 24.5031C49.7767 23.9744 49.8917 23.3421 50.0296 22.6065C50.1905 21.8708 50.3859 20.9857 50.6158 19.9512C50.6618 19.7213 50.7653 19.3534 50.9262 18.8477C51.0871 18.3419 51.294 17.8131 51.5469 17.2614C51.8228 16.6866 52.1447 16.1349 52.5125 15.6061C52.9033 15.0773 53.3631 14.6865 53.8919 14.4336C54.2827 14.5256 54.8 14.767 55.4437 15.1578C56.0874 15.5256 56.6391 16.0429 57.0989 16.7096C56.5702 17.3074 56.1219 17.9051 55.754 18.5028C55.4092 19.1005 55.0873 19.7213 54.7885 20.365C54.5126 21.0087 54.2482 21.6754 53.9953 22.3651C53.7654 23.0548 53.501 23.779 53.2022 24.5376C52.9493 25.1813 52.7194 25.848 52.5125 26.5377C52.3056 27.2044 52.1906 27.7907 52.1676 28.2964C52.1676 28.7102 52.1561 28.9976 52.1332 29.1585C52.1332 29.3425 52.0757 29.4344 51.9607 29.4344C51.8688 29.4344 51.6849 29.3769 51.409 29.262C51.1331 29.1471 50.8457 28.9746 50.5469 28.7447C50.271 28.4918 50.0181 28.1815 49.7882 27.8136C49.5583 27.4458 49.4434 27.009 49.4434 26.5032ZM56.0299 11.5369C56.0299 11.399 56.0644 11.1921 56.1334 10.9162C56.0184 10.8013 55.915 10.6288 55.823 10.3989C55.754 10.169 55.7196 9.96214 55.7196 9.77822C55.7196 9.57131 55.7425 9.29544 55.7885 8.95059C55.8575 8.58276 55.938 8.19193 56.0299 7.77812C56.1219 7.3643 56.2368 6.93899 56.3748 6.50219C56.5127 6.04239 56.6506 5.62858 56.7886 5.26074C57.0644 5.26074 57.3978 5.34121 57.7886 5.50213C58.2024 5.64007 58.6163 5.83548 59.0301 6.08837C59.4439 6.31827 59.8232 6.58265 60.1681 6.88152C60.5129 7.15739 60.7773 7.42178 60.9612 7.67466C60.7083 7.92755 60.375 8.28389 59.9612 8.74368C59.5473 9.18049 59.145 9.65178 58.7542 10.1576C58.3634 10.6403 58.007 11.1001 57.6852 11.5369C57.3633 11.9737 57.1564 12.2841 57.0644 12.468C56.7886 12.422 56.5472 12.3071 56.3403 12.1232C56.1334 11.9163 56.0299 11.7208 56.0299 11.5369Z" fill="#282828"/>
<path id="Vector_5" d="M45.2432 14.8817C45.4731 14.8817 45.7375 14.9277 46.0364 15.0196C46.3582 15.0886 46.6456 15.1921 46.8985 15.33C47.1514 15.4449 47.3583 15.5714 47.5192 15.7093C47.7031 15.8473 47.7951 15.9737 47.7951 16.0887C47.3353 17.0542 46.91 18.0313 46.5192 19.0198C46.1283 19.9854 45.795 20.9165 45.5191 21.8131C45.2432 22.7097 45.0248 23.5488 44.8639 24.3305C44.726 25.1121 44.657 25.7903 44.657 26.3651C44.657 27.0088 44.726 27.549 44.8639 27.9858C45.0018 28.3996 45.2317 28.6985 45.5536 28.8824C45.2777 29.0664 44.9214 29.2158 44.4846 29.3307C44.0478 29.4457 43.6569 29.5032 43.3121 29.5032C42.0707 29.5032 41.4499 28.6525 41.4499 26.9513C41.4499 25.6409 41.8867 23.8477 42.7604 21.5717C42.3006 22.6292 41.7718 23.6293 41.1741 24.5719C40.5763 25.4915 39.9671 26.3076 39.3464 27.0203C38.7257 27.7329 38.0934 28.3192 37.4497 28.779C36.829 29.2158 36.2543 29.4802 35.7255 29.5721C34.8749 29.5261 34.1852 29.1238 33.6564 28.3652C33.1277 27.5835 32.8633 26.595 32.8633 25.3995C32.8633 24.1121 33.1392 22.7557 33.6909 21.3303C34.2427 19.9049 34.9438 18.583 35.7945 17.3646C36.6681 16.1461 37.6107 15.1346 38.6222 14.3299C39.6338 13.5023 40.6108 13.0655 41.5534 13.0195C41.7833 13.0885 42.0362 13.2264 42.3121 13.4333C42.6109 13.6403 42.8868 13.8816 43.1397 14.1575C43.4156 14.4334 43.6455 14.7208 43.8294 15.0196C44.0133 15.2955 44.1167 15.5369 44.1397 15.7438C43.2201 15.8818 42.2661 16.33 41.2775 17.0887C40.3119 17.8474 39.4268 18.767 38.6222 19.8475C37.8406 20.905 37.1968 22.043 36.6911 23.2614C36.1853 24.4799 35.9324 25.6179 35.9324 26.6754C35.9324 27.1122 36.0933 27.3881 36.4152 27.503C37.0819 27.3651 37.852 26.8019 38.7257 25.8133C39.5993 24.8018 40.6568 23.25 41.8982 21.1579C42.1281 20.7441 42.381 20.2843 42.6569 19.7785C42.9558 19.2727 43.2546 18.744 43.5535 18.1922C43.8524 17.6405 44.1397 17.0887 44.4156 16.537C44.7145 15.9622 44.9904 15.4105 45.2432 14.8817Z" fill="#282828"/>
<path id="Vector_6" d="M16.1043 31.3656C16.0583 31.3886 16.0123 31.4001 15.9664 31.4001C15.9204 31.4001 15.8284 31.4001 15.6905 31.4001C15.3686 31.4001 14.9893 31.3426 14.5525 31.2277C14.1387 31.1357 13.7249 31.0093 13.311 30.8483C12.9202 30.7104 12.5754 30.5495 12.2765 30.3656C12.0006 30.1816 11.8282 30.0207 11.7592 29.8828C11.7362 29.5609 11.7248 29.2276 11.7248 28.8827C11.7248 28.5379 11.7248 28.2045 11.7248 27.8827C11.7248 25.3078 11.9087 22.618 12.2765 19.8133C12.6673 17.0085 13.2995 13.9739 14.1732 10.7093C14.2651 10.3875 14.3571 9.98517 14.449 9.50239C14.564 8.99662 14.6789 8.45636 14.7939 7.88161C14.2421 8.31842 13.5869 9.01961 12.8283 9.98517C12.0696 10.9278 11.265 12.0542 10.4143 13.3647C9.58671 14.6521 8.74759 16.0774 7.89697 17.6407C7.06934 19.1811 6.31068 20.7559 5.62098 22.3651C4.93129 23.9514 4.33356 25.5262 3.82779 27.0895C3.345 28.6528 3.04614 30.1012 2.93119 31.4346C1.82768 31.1127 1.05753 30.7909 0.620722 30.469C0.206907 30.1471 0 29.7563 0 29.2965C0 28.8827 0.126443 28.2965 0.37933 27.5378C0.632217 26.7792 0.988558 25.8826 1.44835 24.848C1.90815 23.8135 2.47139 22.664 3.1381 21.3996C3.8048 20.1121 4.54047 18.7328 5.34511 17.2614C6.2647 15.5832 7.16129 14.0084 8.0349 12.537C8.9315 11.0657 9.80511 9.73229 10.6557 8.53682C11.5064 7.34136 12.334 6.30682 13.1386 5.43321C13.9662 4.5596 14.7824 3.8929 15.587 3.43311C15.9089 3.43311 16.3342 3.51357 16.863 3.6745C17.4147 3.83543 17.9435 4.03084 18.4492 4.26074C18.978 4.49063 19.4378 4.73202 19.8286 4.98491C20.2424 5.21481 20.4723 5.41022 20.5183 5.57115C20.1965 6.21486 19.8171 7.18043 19.3803 8.46785C18.9435 9.75528 18.4952 11.2151 18.0354 12.8474C17.5986 14.4797 17.1733 16.2154 16.7595 18.0546C16.3687 19.8707 16.0583 21.618 15.8284 23.2962C16.3572 22.0318 16.9664 20.7214 17.6561 19.365C18.3688 17.9856 19.1159 16.6292 19.8976 15.2958C20.6792 13.9394 21.4724 12.629 22.277 11.3646C23.1047 10.1001 23.9093 8.95064 24.6909 7.9161C25.4726 6.85857 26.1968 5.93899 26.8635 5.15733C27.5532 4.37568 28.1624 3.80094 28.6912 3.43311C29.013 3.43311 29.4383 3.51357 29.9671 3.6745C30.5188 3.83543 31.0476 4.03084 31.5534 4.26074C32.0821 4.49063 32.5419 4.73202 32.9328 4.98491C33.3466 5.21481 33.5765 5.41022 33.6225 5.57115C32.8868 6.88156 32.2431 8.47935 31.6913 10.3645C31.1396 12.2497 30.6683 14.2268 30.2774 16.2958C29.9096 18.3649 29.6222 20.4225 29.4153 22.4686C29.2314 24.4917 29.1395 26.3079 29.1395 27.9171C29.1395 28.4459 29.1395 28.9977 29.1395 29.5724C29.1395 30.1471 29.1624 30.7449 29.2084 31.3656C28.8866 31.3656 28.4957 31.3196 28.036 31.2277C27.5991 31.1587 27.1623 31.0552 26.7255 30.9173C26.3117 30.7794 25.9324 30.6184 25.5875 30.4345C25.2427 30.2736 25.0013 30.0897 24.8634 29.8828C24.8404 29.5609 24.8289 29.2276 24.8289 28.8827C24.8289 28.5379 24.8289 28.2045 24.8289 27.8827C24.8289 25.3078 25.0128 22.618 25.3806 19.8133C25.7715 17.0085 26.4037 13.9739 27.2773 10.7093C27.3693 10.3875 27.4727 9.95069 27.5877 9.39893C27.7026 8.84718 27.8176 8.27244 27.9325 7.67471C27.2888 7.99656 26.5531 8.61729 25.7255 9.53687C24.9208 10.4335 24.0932 11.537 23.2426 12.8474C22.415 14.1348 21.5873 15.5717 20.7597 17.158C19.9551 18.7443 19.2194 20.365 18.5527 22.0203C17.909 23.6526 17.3572 25.2848 16.8974 26.9171C16.4606 28.5264 16.1962 30.0092 16.1043 31.3656Z" fill="#282828"/>
</g>
</svg>
